<svg  width="71" height="74" viewBox="0 0 40 24" fill="none" xmlns="http://www.w3.org/2000/svg">
<path d="M1.18847e-06 7.1381C1.18847e-06 7.1381 1.43297 3.82467 10.6885 3.95571C10.6885 3.95571 19.9081 -5.70378 38.5626 5.16627C38.5626 5.16627 38.154 7.2837 39.6906 7.2837C40.0075 8.87489 40.3324 10.9632 39.2861 12.0552C37.0021 12.0552 36.7809 12.0552 36.7629 12.0552C36.8187 11.7994 36.8506 11.5352 36.8506 11.2627C36.8506 9.28465 35.314 7.68098 33.4187 7.68098C31.5233 7.68098 29.9867 9.28465 29.9867 11.2627C29.9867 11.5352 30.0186 11.7994 30.0744 12.0552H10.6546C10.7084 11.7994 10.7403 11.5352 10.7403 11.2627C10.7403 9.28465 9.20368 7.68098 7.31033 7.68098C4.72541 7.68098 3.25059 10.4224 3.51167 12.0323L1.18847e-06 11.6538C0.536119 8.3549 1.18847e-06 7.1381 1.18847e-06 7.1381ZM26.1761 4.50275H34.3614C34.3614 4.50275 30.9673 2.84291 26.1761 1.87988V4.50275ZM24.4003 4.50275V1.57412C17.5404 0.53828 12.1573 4.50275 12.1573 4.50275H24.4003Z" fill="white"/>
<path d="M7.31033 8.4693C8.7732 8.4693 9.96103 9.70689 9.96103 11.2357C9.96103 12.7603 8.7732 14 7.31033 14C5.84747 14 4.29293 12.7603 4.29293 11.2357C4.29293 9.70481 5.84548 8.4693 7.31033 8.4693ZM7.31033 12.2965C7.87435 12.2965 8.33075 11.8202 8.33075 11.2336C8.33075 10.647 7.87435 10.1687 7.31033 10.1687C6.7503 10.1687 6.28992 10.645 6.28992 11.2336C6.28992 11.8202 6.7503 12.2965 7.31033 12.2965Z" fill="white"/>
<path d="M33.4864 8.4693C34.9493 8.4693 36.1351 9.70689 36.1351 11.2357C36.1351 12.7603 34.9493 14 33.4864 14C32.0216 14 30.8357 12.7603 30.8357 11.2357C30.8377 9.70481 32.0216 8.4693 33.4864 8.4693ZM33.4864 12.2965C34.0485 12.2965 34.5068 11.8202 34.5068 11.2336C34.5068 10.647 34.0485 10.1687 33.4864 10.1687C32.9244 10.1687 32.466 10.645 32.466 11.2336C32.466 11.8202 32.9244 12.2965 33.4864 12.2965Z" fill="white"/>
</svg>
